<?xml version="1.0" standalone="no"?>
<!DOCTYPE svg PUBLIC "-//W3C//DTD SVG 20010904//EN"
 "http://www.w3.org/TR/2001/REC-SVG-20010904/DTD/svg10.dtd">
<svg version="1.0" xmlns="http://www.w3.org/2000/svg"
 width="1000.000000pt" height="276.000000pt" viewBox="0 0 1000.000000 276.000000"
 preserveAspectRatio="xMidYMid meet">
<metadata>
Created by potrace 1.15, written by Peter Selinger 2001-2017
</metadata>
<g transform="translate(0.000000,276.000000) scale(0.100000,-0.100000)"
fill="#ffffff" stroke="none">
<path d="M1175 2238 c-3 -7 -4 -398 -3 -868 l3 -855 150 0 150 0 0 865 0 865
-148 3 c-112 2 -149 0 -152 -10z"/>
<path d="M770 1450 l0 -610 150 0 150 0 0 585 c0 322 0 588 0 593 1 7 -208 40
-267 41 l-33 1 0 -610z"/>
<path d="M5550 1751 c-131 -43 -193 -154 -143 -258 23 -50 86 -86 206 -118 56
-16 119 -36 139 -47 89 -44 88 -156 -1 -206 -108 -61 -268 -22 -302 73 -11 30
-17 35 -46 35 -38 0 -40 -9 -14 -65 41 -92 147 -142 274 -132 39 4 88 15 114
28 89 43 132 146 98 235 -27 70 -91 108 -245 144 -30 7 -74 22 -98 33 -145 67
-53 240 119 224 74 -6 123 -36 145 -88 16 -34 22 -39 51 -39 31 0 33 2 27 28
-11 48 -57 105 -107 130 -51 27 -169 39 -217 23z"/>
<path d="M8815 1747 c-99 -33 -159 -90 -197 -186 -32 -82 -32 -251 1 -335 29
-73 79 -130 145 -164 44 -22 64 -26 141 -26 111 -1 176 24 235 91 63 72 84
138 84 268 0 90 -4 120 -22 166 -31 77 -89 141 -154 169 -64 28 -175 36 -233
17z m199 -71 c44 -18 95 -72 120 -126 17 -37 21 -65 21 -155 0 -127 -17 -176
-80 -238 -45 -44 -92 -61 -165 -61 -73 0 -120 17 -165 61 -55 53 -78 112 -83
214 -7 131 26 220 103 281 59 46 171 57 249 24z"/>
<path d="M2263 1728 c8 -13 64 -107 126 -210 l111 -186 0 -146 0 -146 55 0 55
0 0 146 0 146 112 186 c61 103 118 197 126 210 14 22 14 22 -49 22 l-64 -1
-80 -141 c-44 -77 -85 -148 -91 -156 -8 -11 -29 18 -100 142 l-89 156 -63 0
c-62 0 -62 0 -49 -22z"/>
<path d="M3056 1502 c-49 -136 -106 -295 -127 -354 l-39 -108 58 0 58 0 30 93
30 92 136 3 136 3 32 -96 32 -95 59 0 59 0 -39 108 c-21 59 -78 218 -127 354
l-89 248 -60 0 -60 0 -89 -248z m250 -164 c5 -16 -4 -18 -101 -18 -82 0 -106
3 -103 13 3 6 27 77 53 156 l48 144 48 -139 c27 -76 52 -147 55 -156z"/>
<path d="M3710 1395 l0 -355 50 0 50 0 0 263 1 262 107 -260 107 -260 40 0 40
0 107 260 107 260 1 -262 0 -263 50 0 50 0 0 355 0 355 -64 0 -64 0 -112 -281
c-67 -165 -116 -275 -120 -267 -4 7 -56 133 -115 281 l-108 267 -63 0 -64 0 0
-355z"/>
<path d="M4756 1502 c-49 -136 -106 -295 -127 -354 l-39 -108 58 0 58 0 30 93
30 92 136 3 136 3 32 -96 32 -95 59 0 59 0 -39 108 c-21 59 -78 218 -127 354
l-89 248 -60 0 -60 0 -89 -248z m250 -164 c5 -16 -4 -18 -101 -18 -82 0 -106
3 -103 13 3 6 27 77 53 156 l48 144 48 -139 c27 -76 52 -147 55 -156z"/>
<path d="M6040 1720 l0 -30 115 0 115 0 0 -325 0 -325 35 0 35 0 0 325 0 325
120 0 120 0 0 30 0 30 -270 0 -270 0 0 -30z"/>
<path d="M6752 1488 c3 -241 5 -267 24 -308 47 -101 124 -145 254 -145 130 0
207 44 254 145 19 41 21 67 24 308 l4 262 -36 0 -36 0 0 -252 c0 -225 -2 -257
-19 -294 -67 -148 -315 -148 -382 0 -17 37 -19 69 -19 294 l0 252 -36 0 -36 0
4 -262z"/>
<path d="M7530 1396 l0 -356 140 0 c196 0 260 16 336 82 78 68 118 213 95 348
-15 90 -48 158 -102 203 -68 59 -112 70 -301 75 l-168 4 0 -356z m379 259 c95
-52 140 -157 128 -300 -9 -101 -47 -170 -115 -211 -61 -37 -95 -44 -224 -44
l-98 0 0 296 0 296 128 -4 c118 -3 131 -6 181 -33z"/>
<path d="M8310 1395 l0 -355 35 0 35 0 0 355 0 355 -35 0 -35 0 0 -355z"/>
<path d="M1705 1653 c-66 -7 -126 -16 -132 -18 -10 -3 -13 -110 -13 -490 l0
-485 155 0 155 0 0 505 0 505 -22 -1 c-13 -1 -77 -8 -143 -16z"/>
</g>
</svg>
